HIERARCHY
ROOT Hips
{
  OFFSET 279.157 85.6768 304.565
  CHANNELS 6 Xposition Yposition Zposition Zrotation Xrotation Yrotation
  JOINT LeftUpLeg
  {
    OFFSET 8.64259 1.95398 -2.38835
    CHANNELS 3 Zrotation Xrotation Yrotation
    JOINT LeftLeg
    {
      OFFSET 43.7702 0 0
      CHANNELS 3 Zrotation Xrotation Yrotation
      JOINT LeftFoot
      {
        OFFSET 40.6238 0 0
        CHANNELS 3 Zrotation Xrotation Yrotation
        JOINT LeftToeBase
        {
          OFFSET 12.7242 0 0
          CHANNELS 3 Zrotation Xrotation Yrotation
          End Site
          {
            OFFSET 0 0 0
          }
        }
      }
    }
  }
  JOINT RightUpLeg
  {
    OFFSET -8.2249 1.95398 -2.59336
    CHANNELS 3 Zrotation Xrotation Yrotation
    JOINT RightLeg
    {
      OFFSET 43.5653 0 0
      CHANNELS 3 Zrotation Xrotation Yrotation
      JOINT RightFoot
      {
        OFFSET 40.6238 0 0
        CHANNELS 3 Zrotation Xrotation Yrotation
        JOINT RightToeBase
        {
          OFFSET 12.7242 0 0
          CHANNELS 3 Zrotation Xrotation Yrotation
          End Site
          {
            OFFSET 0 0 0
          }
        }
      }
    }
  }
  JOINT Spine
  {
    OFFSET 0.165834 0.87714 6.61349
    CHANNELS 3 Zrotation Xrotation Yrotation
    JOINT Spine1
    {
      OFFSET 7.38963 1.71661e-005 0
      CHANNELS 3 Zrotation Xrotation Yrotation
      JOINT Spine2
      {
        OFFSET 11.9445 1.14441e-005 0
        CHANNELS 3 Zrotation Xrotation Yrotation
        JOINT Spine3
        {
          OFFSET 14.7254 4.19617e-005 0
          CHANNELS 3 Zrotation Xrotation Yrotation
          JOINT Spine4
          {
            OFFSET 10.9679 0 0
            CHANNELS 3 Zrotation Xrotation Yrotation
            JOINT RightShoulder
            {
              OFFSET 2.46616 -1.6653 3.69651
              CHANNELS 3 Zrotation Xrotation Yrotation
              JOINT RightArm
              {
                OFFSET 13.0012 0 0
                CHANNELS 3 Zrotation Xrotation Yrotation
                JOINT RightForeArm
                {
                  OFFSET 28.7848 1.52588e-005 0
                  CHANNELS 3 Zrotation Xrotation Yrotation
                  JOINT RightHand
                  {
                    OFFSET 26.5688 1.52588e-005 0
                    CHANNELS 3 Zrotation Xrotation Yrotation
                    End Site
                    {
                      OFFSET 0 0 0
                    }
                  }
                }
              }
            }
            JOINT LeftShoulder
            {
              OFFSET 2.38034 -1.29275 -3.7523
              CHANNELS 3 Zrotation Xrotation Yrotation
              JOINT LeftArm
              {
                OFFSET 16.3182 6.10351e-005 0
                CHANNELS 3 Zrotation Xrotation Yrotation
                JOINT LeftForeArm
                {
                  OFFSET 27.0901 0 0
                  CHANNELS 3 Zrotation Xrotation Yrotation
                  JOINT LeftHand
                  {
                    OFFSET 24.5451 1.52588e-005 0
                    CHANNELS 3 Zrotation Xrotation Yrotation
                    End Site
                    {
                      OFFSET 0 0 0
                    }
                  }
                }
              }
            }
            JOINT Neck
            {
              OFFSET 5.0226 -0.0266342 0
              CHANNELS 3 Zrotation Xrotation Yrotation
              JOINT Head
              {
                OFFSET 6.69364 2.86102e-005 0
                CHANNELS 3 Zrotation Xrotation Yrotation
                End Site
                {
                  OFFSET 0 0 0
                }
              }
            }
          }
        }
      }
    }
  }
}
MOTION
Frames:	7
Frame Time:	0.0416667
-226.674 99.364 -193.703 97.6797 -33.8487 96.0388 -174.571 13.1019 94.0134 -61.5256 9.38746 3.85938 61.6083 1.89458 4.5549 14.8066 -5.73527 -4.86075 175.178 3.06679 95.808 -23.6837 -2.5798 2.85087 71.3395 -6.08024 -3.00899 16.3971 1.99733 9.39158 0.029426 8.42176 -90.5343 10.0292 -0.184429 -1.04596 -1.64214 -0.230289 -1.03684 -24.1738 0.138415 -1.05303 -4.16117 0.138433 -1.05303 87.7379 -31.9343 -110.373 38.7587 -8.03386 -0.293767 2.73535 -23.3782 -14.8024 -20.826 -0.459359 -9.36923 -91.9302 -53.7044 76.7306 -19.5646 10.1297 -9.89539 2.53537 10.4944 -13.5389 -2.64426 -0.0723362 -10.7607 15.7571 -4.44995 -3.24943 -2.35954 -3.42068 0.440593 
-222.87 99.8081 -189.844 97.2681 -36.1829 93.4443 -174.954 18.6757 89.7795 -52.7663 5.9915 1.69314 63.7175 3.67061 5.13047 17.5138 -4.44222 -4.75107 174.951 -0.691551 93.8982 -21.853 -5.83835 1.45323 72.0955 -6.20412 -3.90886 17.6457 1.72096 9.17181 0.580335 8.36439 -90.1466 10.148 1.08958 -0.383462 -1.52254 1.07166 -0.431053 -24.0614 1.15443 -0.0382263 -4.04871 1.15445 -0.0382302 87.8805 -30.6552 -110.646 36.4375 -9.23543 -4.50277 1.70194 -22.3687 -16.6465 -22.1152 -0.165057 -10.6329 -90.9399 -53.9758 78.2063 -19.3959 8.71306 -5.25023 2.89246 5.90638 -15.7094 -0.413265 -0.18249 -9.70853 12.3122 -4.926 -2.32954 -1.1962 -4.22552 -0.737134 
-218.812 99.6531 -186.164 97.0804 -39.1417 92.3108 -175.656 20.7032 87.3925 -36.2294 4.44564 -0.275653 61.8054 2.8918 4.80482 22.5187 -2.96891 -1.34612 174.947 -3.70121 92.9733 -21.5895 -10.5235 0.190648 71.7985 -6.07796 -6.00133 21.377 0.860874 8.56935 1.02113 8.44431 -89.9342 9.9868 2.06507 -0.0391874 -1.68251 2.06134 -0.130083 -24.2301 1.98134 0.583506 -4.21745 1.98134 0.583506 87.606 -29.3727 -111.753 32.0266 -10.8292 -9.90097 1.39992 -24.981 -18.3842 -26.27 -0.384588 -9.46427 -91.1271 -55.8103 78.3284 -17.3838 7.67644 -1.54584 3.1447 4.23487 -17.6478 -1.08211 -0.158333 -10.3863 11.282 -4.68866 -0.38728 -1.35522 -4.4843 -1.81308 
-214.214 98.5993 -182.187 96.7352 -41.7464 91.8506 -177.261 19.583 86.4708 -15.0222 3.61606 -1.07284 60.3376 2.55248 2.50004 21.4055 -3.97201 -0.00587438 174.734 -7.8283 92.1634 -21.1364 -11.2991 -0.646236 75.604 -8.47117 -5.82509 23.0644 0.258379 9.43072 1.28332 8.45624 -89.79 9.96081 2.65311 0.199481 -1.70743 2.65932 0.0824294 -24.262 2.47043 0.988105 -4.24933 2.47043 0.988109 87.1314 -28.7522 -112.98 27.1446 -11.1557 -15.5342 0.164925 -26.1671 -18.4659 -27.7845 -0.597083 -8.59338 -91.0255 -57.0401 78.7234 -16.5279 7.08399 1.97846 2.78996 2.6519 -17.4326 -1.58622 -0.134717 -10.7351 11.1029 -4.20799 1.21197 -1.4979 -4.394 -2.59966 
-209.273 97.1041 -177.85 97.0148 -44.7526 92.486 -177.803 21.3458 86.7485 -7.07579 2.78908 -2.17563 62.7175 2.73921 2.02599 23.1951 -4.27992 4.25658 174.181 -11.4872 91.3906 -22.6769 -14.1979 -1.23636 76.4863 -9.38187 -6.56146 26.3926 -0.515509 8.98247 1.56452 8.47156 -89.74 9.92943 3.23629 0.252429 -1.73748 3.24428 0.109589 -24.3014 3.01068 1.21427 -4.28877 3.01068 1.21426 86.5 -28.6598 -114.271 23.458 -9.94056 -19.6851 -0.684292 -26.358 -19.9474 -28.0075 -0.426905 -9.48041 -91.122 -58.3173 78.8482 -16.5567 7.08836 4.37662 1.86493 0.824191 -15.0117 -2.41287 -0.0885757 -10.2142 11.0391 -3.67886 2.58984 -1.36559 -4.20567 -2.96302 
-203.716 96.0082 -172.944 99.0454 -48.0272 94.2351 -176.687 20.2057 87.174 -7.27399 2.28764 -3.04128 55.8494 -1.43764 -0.0507984 20.1922 -5.2151 1.7637 172.251 -16.6087 88.573 -23.0811 -17.9108 -1.71539 74.7776 -8.9541 -6.10633 33.2322 -2.42338 10.8104 1.82008 8.56497 -89.6789 9.7406 3.77344 0.339619 -1.92489 3.78472 0.172975 -24.4988 3.49672 1.45935 -4.48613 3.4967 1.45934 86.3712 -28.3121 -114.702 22.9404 -8.05164 -22.7019 -2.94207 -28.4783 -20.4619 -26.8518 -0.194625 -11.5699 -91.1832 -60.2535 79.1469 -16.0877 6.72665 5.41356 1.14264 1.0922 -10.8136 -3.21145 -0.0428327 -11.0005 11.9416 -3.1445 3.29846 -1.42144 -3.87421 -3.18054 
-197.624 95.7627 -167.284 99.271 -50.815 92.6311 -176.104 22.8753 85.1818 -18.9778 7.40194 -2.99347 55.271 -3.30972 -0.549209 13.6415 -9.26374 2.27608 170.116 -18.2062 84.162 -26.0282 -21.1151 -3.42005 69.3702 -5.99786 -5.86385 39.9382 -4.03949 12.4593 1.97502 8.50076 -89.2892 9.85531 4.25892 1.06762 -1.80894 4.30176 0.878822 -24.3862 3.74098 2.29972 -4.37355 3.74097 2.29971 86.1504 -28.7884 -114.896 25.3867 -8.20054 -23.0651 -4.60531 -25.5264 -21.3971 -26.3105 -0.163448 -10.9735 -91.0168 -60.5697 79.4307 -16.3793 5.8403 5.72182 1.4331 3.62779 -7.77257 -2.50712 -0.0881232 -6.41365 13.7576 -3.23675 1.67777 -2.94185 -3.54746 -3.55001 
